<svg width="417" height="577" viewBox="0 0 417 577" fill="none" xmlns="http://www.w3.org/2000/svg">
<mask id="mask0_70_238" style="mask-type:alpha" maskUnits="userSpaceOnUse" x="0" y="0" width="417" height="577">
<path d="M345.09 13.3651C327.052 1.95444 303.663 0.086673 282.209 0.00819542C260.658 -0.0702822 239.237 3.99486 219.149 11.4973C199.891 18.6859 181.918 28.9193 165.637 41.1619C148.396 54.1421 133.367 69.4295 119.639 85.7999C105.797 102.312 92.7525 119.514 80.147 136.92C67.8505 153.903 56.1559 171.309 45.616 189.375C35.1901 207.236 25.9027 225.741 18.4695 244.952C11.0851 264.023 5.55495 283.783 2.59469 303.936C-0.560749 325.361 -1.34148 347.994 6.05917 368.727C12.2562 386.102 24.4551 401.845 41.9401 409.787C60.6451 418.294 82.1639 417.132 102.024 413.742C124.779 409.865 147.192 403.775 169.622 398.502C190.23 393.668 210.919 389.084 231.332 383.56C249.744 378.584 267.977 372.793 285.332 364.992C302.183 357.427 318.204 347.899 331.818 335.626C346.619 322.253 357.631 305.851 365.796 288.021C374.302 269.422 379.946 249.755 385.574 230.214C391.657 209.104 397.497 187.868 401.075 166.224C404.572 145.082 405.873 123.375 402.36 102.139C398.863 81.0599 390.161 61.6759 378.011 43.94C372.204 35.4644 354.622 19.3922 345.074 13.3494" fill="#236B61"/>
<path d="M340.471 313.307C362.982 316.603 393.821 341.606 403.889 361.319C413.957 381.033 416.56 403.524 416.511 425.498C416.446 459.322 410.444 493.114 398.847 525.023C394.732 536.356 389.608 547.876 380.223 555.755C373.034 561.814 363.893 565.235 354.817 568.108C331.086 575.626 305.013 580.115 281.315 572.518C251.533 562.96 231.56 536.654 206.788 518.039C186.066 502.469 161.31 491.906 142.654 474.044C123.803 455.995 112.336 430.662 112.58 405.031C112.824 379.4 125.12 353.879 146.005 338.027C159.635 327.684 176.209 321.625 192.865 316.932C224.192 308.096 277.802 304.125 340.455 313.291" fill="#AACD6F"/>
</mask>
<g mask="url(#mask0_70_238)">
<path d="M345.075 13.3644C327.037 1.95371 303.648 0.0859406 282.194 0.007463C260.643 -0.0710146 239.221 3.99412 219.134 11.4966C199.876 18.6851 181.903 28.9186 165.622 41.1611C148.38 54.1413 133.351 69.4288 119.624 85.7992C105.782 102.311 92.7374 119.513 80.1319 136.92C67.8354 153.902 56.1407 171.308 45.6009 189.374C35.1749 207.235 25.8875 225.74 18.4544 244.952C11.07 264.022 5.53982 283.783 2.57956 303.936C-0.575886 325.36 -1.35661 347.993 6.04404 368.727C12.2411 386.102 24.4399 401.844 41.925 409.786C60.6299 418.293 82.1487 417.132 102.008 413.741C124.763 409.865 147.177 403.775 169.607 398.501C190.214 393.667 210.904 389.084 231.317 383.559C249.729 378.583 267.962 372.792 285.317 364.991C302.168 357.426 318.189 347.899 331.803 335.625C346.604 322.252 357.616 305.85 365.781 288.02C374.287 269.421 379.931 249.755 385.559 230.214C391.642 209.103 397.481 187.867 401.06 166.223C404.557 145.081 405.858 123.374 402.345 102.138C398.848 81.0591 390.146 61.6752 377.996 43.9392C372.189 35.4637 354.607 19.3914 345.059 13.3487" fill="url(#paint0_linear_70_238)"/>
<path d="M340.456 313.306C362.967 316.602 393.806 341.605 403.874 361.318C413.942 381.032 416.545 403.524 416.496 425.497C416.431 459.321 410.429 493.114 398.832 525.023C394.717 536.355 389.594 547.875 380.209 555.755C373.019 561.813 363.878 565.235 354.802 568.107C331.071 575.625 304.998 580.114 281.3 572.517C251.519 562.959 231.545 536.653 206.773 518.038C186.051 502.468 161.296 491.905 142.64 474.044C123.788 455.994 112.321 430.661 112.565 405.03C112.809 379.4 125.106 353.879 145.99 338.026C159.62 327.683 176.195 321.624 192.85 316.931C224.177 308.095 277.787 304.124 340.44 313.29" fill="url(#paint1_linear_70_238)"/>
<path d="M208.546 166.364C208.546 181.667 195.696 194.067 179.838 194.067C163.979 194.067 151.146 181.667 151.146 166.364C151.146 151.061 163.995 138.677 179.838 138.677C195.68 138.677 208.546 151.077 208.546 166.364Z" fill="#C7DDA0"/>
<path d="M216.093 311.564C216.093 326.867 203.243 339.266 187.385 339.266C171.526 339.266 158.693 326.867 158.693 311.564C158.693 296.261 171.543 283.877 187.385 283.877C203.227 283.877 216.093 296.276 216.093 311.564Z" fill="#C7DDA0"/>
<path d="M355.42 185.277C355.42 200.58 342.57 212.98 326.712 212.98C310.853 212.98 298.004 200.58 298.004 185.277C298.004 169.974 310.853 157.59 326.712 157.59C342.57 157.59 355.42 169.99 355.42 185.277Z" fill="#C7DDA0"/>
<path d="M342.977 440.722C342.977 456.025 330.128 468.425 314.269 468.425C298.411 468.425 285.561 456.025 285.561 440.722C285.561 425.419 298.411 413.035 314.269 413.035C330.128 413.035 342.977 425.435 342.977 440.722Z" fill="#2B6E65"/>
<path d="M230.845 45.7439V504.995" stroke="white" stroke-width="3" stroke-miterlimit="10"/>
<path d="M132.636 184.994C132.636 184.994 221.509 268.73 330.55 184.994" stroke="white" stroke-width="3" stroke-miterlimit="10"/>
<path d="M148.69 289.479C148.69 289.479 222.518 205.744 313.098 289.479" stroke="white" stroke-width="3" stroke-miterlimit="10"/>
<path d="M301.646 385.473C301.646 385.473 214.872 471.233 301.646 576.456" stroke="white" stroke-width="3" stroke-miterlimit="10"/>
<path d="M160.417 381.785C160.417 381.785 247.192 467.545 160.417 572.768" stroke="white" stroke-width="3" stroke-miterlimit="10"/>
<path d="M385.135 241.985C368.577 241.577 345.774 241.577 329.476 243.429C322.758 252.673 315.097 261.934 314.138 273.03C310.299 310.04 313.178 347.035 301.679 384.045C300.719 389.601 304.558 394.215 305.517 398.846C320.855 447.878 319.896 529.228 318.757 579.046M239.351 553.729C238.586 547.325 235.398 508.102 236.683 506.47C232.731 506.47 228.778 506.438 224.826 506.438C225.297 511.712 224.338 532.964 223.606 538.504M21.1534 241.043C57.2133 240.651 93.6473 236.946 131.025 241.577C132.944 241.577 147.322 261.934 147.322 269.326C151.161 306.336 147.322 343.331 159.781 379.415C160.741 383.119 158.822 387.733 157.862 391.437C149.242 414.573 148.282 456.809 144.655 481.012M37.9391 199.544C65.8338 197.174 81.8876 195.589 115.426 187.082C121.64 185.496 132.96 185.135 139.661 184.209C158.838 180.505 178.015 178.653 192.393 164.778C198.151 158.296 201.973 153.117 204.641 145.112M259.975 141.973C262.642 149.977 266.481 158.296 272.222 164.778C286.601 178.653 305.778 180.505 324.954 184.209C331.672 185.135 342.976 185.496 349.189 187.082C382.728 195.589 398.765 197.158 426.677 199.544M271.133 100.552C271.133 112.261 270.271 123.122 265.993 132.147C258.885 147.184 245.206 157.056 231.543 157.056C221.15 157.056 211.684 152.897 204.624 143.542C203.096 141.518 200.054 137.751 198.753 135.396C193.483 125.791 191.954 113.705 191.954 100.552C191.954 87.3994 193.597 74.8116 199.078 65.1275C206.332 52.2729 219.084 47.1875 231.543 47.1875C244.621 47.1875 257.86 51.5352 265.066 65.5042C269.897 74.8744 271.133 88.0115 271.133 100.552Z" stroke="white" stroke-width="3" stroke-linecap="round" stroke-linejoin="round"/>
</g>
<defs>
<linearGradient id="paint0_linear_70_238" x1="360.598" y1="0.00633437" x2="176.125" y2="441.157" gradientUnits="userSpaceOnUse">
<stop stop-color="#236B61" stop-opacity="0.54"/>
<stop offset="0.986404" stop-color="#236B61"/>
</linearGradient>
<linearGradient id="paint1_linear_70_238" x1="264.529" y1="308.067" x2="264.529" y2="576.446" gradientUnits="userSpaceOnUse">
<stop stop-color="#AACD6F" stop-opacity="0.69"/>
<stop offset="1" stop-color="#AACD6F"/>
</linearGradient>
</defs>
</svg>
